CATALOG 0724359339726
PERFORMER "Jethro Tull"
TITLE "Live - Bursting Out (2004 Remaster)"
FILE "101 Introduction (by Claude Nobs).wav" WAVE
  TRACK 01 AUDIO
    TITLE "Introduction (by Claude Nobs)"
    PERFORMER "Jethro Tull"
    ISRC GBAYK0300109
    INDEX 01 00:00:00
FILE "102 No Lullaby.wav" WAVE
  TRACK 02 AUDIO
    TITLE "No Lullaby"
    PERFORMER "Jethro Tull"
    ISRC GBAYK0300071
    INDEX 01 00:00:00
FILE "103 Sweet Dream.wav" WAVE
  TRACK 03 AUDIO
    TITLE "Sweet Dream"
    PERFORMER "Jethro Tull"
    ISRC GBAYK0300072
    INDEX 01 00:00:00
FILE "104 Skating Away On The Thin Ice Of The New Day.wav" WAVE
  TRACK 04 AUDIO
    TITLE "Skating Away On The Thin Ice Of The New Day"
    PERFORMER "Jethro Tull"
    ISRC GBAYK0300073
    INDEX 01 00:00:00
FILE "105 Jack In The Green.wav" WAVE
  TRACK 05 AUDIO
    TITLE "Jack In The Green"
    PERFORMER "Jethro Tull"
    ISRC GBAYK0300074
    INDEX 01 00:00:00
FILE "106 One Brown Mouse.wav" WAVE
  TRACK 06 AUDIO
    TITLE "One Brown Mouse"
    PERFORMER "Jethro Tull"
    ISRC GBAYK0300075
    INDEX 01 00:00:00
FILE "107 A New Day Yesterday.wav" WAVE
  TRACK 07 AUDIO
    TITLE "A New Day Yesterday"
    PERFORMER "Jethro Tull"
    ISRC GBAYK0300076
    INDEX 01 00:00:00
FILE "108 Flute Solo Improvisation.wav" WAVE
  TRACK 08 AUDIO
    TITLE "Flute Solo Improvisation"
    PERFORMER "Jethro Tull"
    ISRC GBAYK0300082
    INDEX 01 00:00:00
FILE "109 Songs From The Wood.wav" WAVE
  TRACK 09 AUDIO
    TITLE "Songs From The Wood"
    PERFORMER "Jethro Tull"
    ISRC GBAYK0300077
    INDEX 01 00:00:00
FILE "110 Thick As A Brick.wav" WAVE
  TRACK 10 AUDIO
    TITLE "Thick As A Brick"
    PERFORMER "Jethro Tull"
    ISRC GBAYK0300078
    INDEX 01 00:00:00
